{"asset":{"version":"2.0","generator":"THREE.GLTFExporter"},"scenes":[{"name":"default","nodes":[0]}],"scene":0,"nodes":[{"mesh":0}],"bufferViews":[{"buffer":0,"byteOffset":0,"byteLength":1008,"target":34962,"byteStride":12},{"buffer":0,"byteOffset":1008,"byteLength":1008,"target":34962,"byteStride":12},{"buffer":0,"byteOffset":2016,"byteLength":672,"target":34962,"byteStride":8},{"buffer":0,"byteOffset":2688,"byteLength":96,"target":34963},{"buffer":0,"byteOffset":2784,"byteLength":48,"target":34963},{"buffer":0,"byteOffset":2832,"byteLength":12,"target":34963},{"buffer":0,"byteOffset":2844,"byteLength":12,"target":34963}],"buffers":[{"byteLength":2856,"uri":"data:application/octet-stream;base64,"}],"accessors":[{"bufferView":0,"componentType":5126,"count":84,"max":[0.5,6.5,0.5],"min":[-4.5,-2,-4.5],"type":"VEC3"},{"bufferView":1,"componentType":5126,"count":84,"max":[0.9922778606414795,1,0.9922778606414795],"min":[-0.9922778606414795,-1,-0.9922778606414795],"type":"VEC3"},{"bufferView":2,"componentType":5126,"count":84,"max":[1,1],"min":[0,0],"type":"VEC2"},{"bufferView":3,"componentType":5123,"count":48,"max":[47],"min":[0],"type":"SCALAR"},{"bufferView":4,"componentType":5123,"count":24,"max":[71],"min":[48],"type":"SCALAR"},{"bufferView":5,"componentType":5123,"count":6,"max":[77],"min":[72],"type":"SCALAR"},{"bufferView":6,"componentType":5123,"count":6,"max":[83],"min":[78],"type":"SCALAR"}],"materials":[{"pbrMetallicRoughness":{"metallicFactor":0,"roughnessFactor":1,"baseColorTexture":{"index":0}},"alphaMode":"MASK","alphaCutoff":0.01,"name":"texture_MUS-COFFEESET"},{"pbrMetallicRoughness":{"metallicFactor":0,"roughnessFactor":1,"baseColorTexture":{"index":1}},"alphaMode":"MASK","alphaCutoff":0.01,"name":"texture_1"},{"pbrMetallicRoughness":{"metallicFactor":0,"roughnessFactor":1,"baseColorTexture":{"index":2}},"alphaMode":"MASK","alphaCutoff":0.01,"name":"texture_2"},{"pbrMetallicRoughness":{"metallicFactor":0,"roughnessFactor":1,"baseColorTexture":{"index":3}},"alphaMode":"MASK","alphaCutoff":0.01,"name":"texture_3"}],"textures":[{"sampler":0,"source":0,"name":"texture_MUS-COFFEESET"},{"sampler":1,"source":1,"name":"texture_1"},{"sampler":2,"source":2,"name":"texture_2"},{"sampler":3,"source":3,"name":"texture_3"}],"samplers":[{"magFilter":9728,"minFilter":9728,"wrapS":33071,"wrapT":33071},{"magFilter":9728,"minFilter":9728,"wrapS":33071,"wrapT":33071},{"magFilter":9728,"minFilter":9728,"wrapS":33071,"wrapT":33071},{"magFilter":9728,"minFilter":9728,"wrapS":33071,"wrapT":33071}],"images":[{"mimeType":"image/png","uri":"data:image/png;base64,"},{"mimeType":"image/png","uri":"data:image/png;base64,"},{"mimeType":"image/png","uri":"data:image/png;base64,"},{"mimeType":"image/png","uri":"data:image/png;base64,"}],"meshes":[{"primitives":[{"mode":4,"attributes":{"POSITION":0,"NORMAL":1,"TEXCOORD_0":2},"indices":3,"material":0},{"mode":4,"attributes":{"POSITION":0,"NORMAL":1,"TEXCOORD_0":2},"indices":4,"material":1},{"mode":4,"attributes":{"POSITION":0,"NORMAL":1,"TEXCOORD_0":2},"indices":5,"material":2},{"mode":4,"attributes":{"POSITION":0,"NORMAL":1,"TEXCOORD_0":2},"indices":6,"material":3}]}]}